<?xml version="1.0" standalone="no"?>
<!DOCTYPE svg PUBLIC "-//W3C//DTD SVG 20010904//EN"
 "http://www.w3.org/TR/2001/REC-SVG-20010904/DTD/svg10.dtd">
<svg version="1.0" xmlns="http://www.w3.org/2000/svg"
 width="800.000000pt" height="500.000000pt" viewBox="0 0 800.000000 500.000000"
 preserveAspectRatio="xMidYMid meet">

<g transform="translate(0.000000,500.000000) scale(0.100000,-0.100000)"
fill="#000000" stroke="none">
<path d="M4530 4033 c-130 -20 -265 -69 -351 -126 -68 -45 -150 -129 -177
-183 -71 -140 -105 -432 -67 -579 47 -180 183 -294 363 -303 136 -7 269 43
354 134 82 89 108 226 69 368 -12 43 -20 80 -19 81 2 1 27 15 57 30 63 31 61
33 91 -76 26 -98 27 -225 1 -308 -64 -204 -269 -341 -513 -341 -161 0 -290 52
-387 155 -70 75 -90 110 -122 215 -19 61 -24 98 -24 195 0 66 4 152 8 191 l9
71 -83 23 c-201 54 -391 -6 -551 -172 -74 -77 -138 -193 -157 -286 -15 -74
-14 -190 4 -248 22 -72 19 -111 -9 -139 -34 -34 -65 -39 -127 -21 -29 9 -82
16 -119 16 -108 0 -193 -55 -311 -200 -76 -95 -165 -177 -220 -204 -144 -70
-316 -58 -502 33 -70 35 -96 44 -93 32 50 -175 102 -308 163 -421 145 -266
328 -448 528 -527 61 -24 84 -27 180 -27 90 -1 122 3 177 22 l67 23 -5 43 c-4
24 -1 76 6 115 30 180 162 331 341 391 93 32 231 26 311 -13 67 -33 141 -110
174 -182 27 -59 58 -171 51 -189 -3 -7 -26 -13 -55 -15 l-49 -2 -17 62 c-46
162 -145 249 -286 249 -87 0 -129 -13 -191 -60 -64 -48 -122 -128 -143 -199
-48 -163 15 -428 132 -553 163 -174 489 -197 749 -53 82 46 188 149 230 226
35 62 74 86 120 74 43 -10 60 -32 83 -101 42 -125 127 -199 274 -236 68 -17
100 -20 196 -15 344 18 631 221 679 481 6 33 10 60 8 61 -1 2 -22 13 -47 25
-123 62 -239 168 -293 268 -99 183 -53 437 108 595 130 128 299 167 461 105
l56 -22 -6 -44 c-3 -24 -8 -48 -11 -52 -3 -5 -25 1 -48 13 -32 16 -59 22 -117
22 -65 0 -84 -4 -142 -33 -159 -78 -262 -270 -236 -438 19 -121 99 -219 233
-285 122 -59 188 -73 330 -66 206 9 332 62 461 191 95 95 151 186 193 311 153
459 8 1021 -320 1238 -121 81 -275 106 -448 72 -81 -16 -91 -16 -119 -1 -40
21 -41 23 -63 122 -32 146 -100 249 -223 335 -128 91 -307 140 -495 138 -53
-1 -107 -3 -121 -6z"/>
</g>
</svg>
